<svg width="412" height="412" viewBox="0 0 412 412" fill="none" xmlns="http://www.w3.org/2000/svg">
<path d="M94.9734 110.699L93.3584 112.607L103.917 121.544L105.533 119.635L94.9734 110.699Z" fill="white"/>
<path d="M69.1313 154.341L68.2668 156.687L81.2462 161.47L82.1106 159.124L69.1313 154.341Z" fill="white"/>
<path d="M59.7853 204.165L59.7754 206.664L73.6086 206.719L73.6185 204.22L59.7853 204.165Z" fill="white"/>
<path d="M68.038 254.198L68.8831 256.55L81.9013 251.872L81.0562 249.52L68.038 254.198Z" fill="white"/>
<path d="M92.9089 298.403L94.5066 300.323L105.14 291.476L103.542 289.556L92.9089 298.403Z" fill="white"/>
<path d="M131.358 331.405L133.516 332.663L140.483 320.714L138.325 319.456L131.358 331.405Z" fill="white"/>
<path d="M178.826 349.268L181.285 349.713L183.746 336.101L181.287 335.657L178.826 349.268Z" fill="white"/>
<path d="M229.53 349.818L231.993 349.395L229.65 335.761L227.187 336.184L229.53 349.818Z" fill="white"/>
<path d="M277.364 333.031L279.533 331.791L272.667 319.782L270.498 321.022L277.364 333.031Z" fill="white"/>
<path d="M307.63 290.016L306.016 291.923L316.575 300.859L318.189 298.952L307.63 290.016Z" fill="white"/>
<path d="M342.416 257.244L343.281 254.9L330.304 250.11L329.439 252.454L342.416 257.244Z" fill="white"/>
<path d="M351.754 207.37L351.765 204.872L337.932 204.81L337.921 207.308L351.754 207.37Z" fill="white"/>
<path d="M343.538 157.352L342.695 155.001L329.675 159.672L330.518 162.023L343.538 157.352Z" fill="white"/>
<path d="M318.623 113.159L317.025 111.239L306.392 120.087L307.99 122.007L318.623 113.159Z" fill="white"/>
<path d="M280.19 80.1391L278.032 78.8809L271.065 90.8308L273.223 92.089L280.19 80.1391Z" fill="#FFA900"/>
<path d="M232.717 62.2817L230.258 61.8359L227.791 75.446L230.25 75.8917L232.717 62.2817Z" fill="#FFA900"/>
<path d="M182.024 61.733L179.561 62.1562L181.904 75.7899L184.367 75.3666L182.024 61.733Z" fill="#FFA900"/>
<path d="M134.175 78.5306L132.007 79.7705L138.873 91.78L141.042 90.5401L134.175 78.5306Z" fill="#FFA900"/>
<path d="M91.3734 115.06L90.5996 116.042L98.3549 122.155L99.1288 121.174L91.3734 115.06Z" fill="white"/>
<path d="M88.2825 119.123L87.5432 120.131L95.5072 125.972L96.2464 124.964L88.2825 119.123Z" fill="white"/>
<path d="M85.311 123.27L84.6074 124.303L92.7692 129.861L93.4727 128.828L85.311 123.27Z" fill="white"/>
<path d="M82.5193 127.528L81.8523 128.585L90.2038 133.855L90.8708 132.798L82.5193 127.528Z" fill="white"/>
<path d="M79.868 131.859L79.2375 132.939L87.7671 137.916L88.3976 136.836L79.868 131.859Z" fill="white"/>
<path d="M77.3581 136.302L76.7659 137.404L85.4644 142.079L86.0566 140.977L77.3581 136.302Z" fill="white"/>
<path d="M75.0194 140.842L74.4658 141.964L83.3218 146.333L83.8753 145.211L75.0194 140.842Z" fill="white"/>
<path d="M72.8345 145.438L72.3208 146.577L81.3239 150.635L81.8376 149.495L72.8345 145.438Z" fill="white"/>
<path d="M70.7943 150.127L70.3206 151.285L79.4598 155.025L79.9335 153.867L70.7943 150.127Z" fill="white"/>
<path d="M67.234 159.671L66.8423 160.858L76.2193 163.953L76.6111 162.766L67.234 159.671Z" fill="white"/>
<path d="M65.7157 164.54L65.3652 165.74L74.844 168.509L75.1944 167.309L65.7157 164.54Z" fill="white"/>
<path d="M64.3606 169.454L64.0527 170.665L73.6233 173.097L73.9312 171.886L64.3606 169.454Z" fill="white"/>
<path d="M63.174 174.41L62.908 175.633L72.5567 177.733L72.8227 176.51L63.174 174.41Z" fill="white"/>
<path d="M62.1796 179.397L61.9561 180.628L71.6722 182.393L71.8958 181.162L62.1796 179.397Z" fill="white"/>
<path d="M61.3389 184.427L61.1589 185.665L70.9312 187.085L71.1111 185.847L61.3389 184.427Z" fill="white"/>
<path d="M60.6869 189.466L60.55 190.711L70.3661 191.791L70.503 190.546L60.6869 189.466Z" fill="white"/>
<path d="M60.2104 194.546L60.1174 195.795L69.9666 196.528L70.0595 195.279L60.2104 194.546Z" fill="white"/>
<path d="M59.884 199.642L59.835 200.893L69.7029 201.279L69.7519 200.028L59.884 199.642Z" fill="white"/>
<path d="M59.8326 209.829L59.8706 211.08L69.7424 210.78L69.7044 209.529L59.8326 209.829Z" fill="white"/>
<path d="M60.0653 214.929L60.146 216.179L70.0007 215.542L69.9199 214.293L60.0653 214.929Z" fill="white"/>
<path d="M60.4601 220.005L60.5845 221.25L70.4104 220.268L70.286 219.023L60.4601 220.005Z" fill="white"/>
<path d="M61.0489 225.053L61.2163 226.294L71.0018 224.974L70.8344 223.733L61.0489 225.053Z" fill="white"/>
<path d="M61.816 230.089L62.0261 231.323L71.7605 229.666L71.5503 228.432L61.816 230.089Z" fill="white"/>
<path d="M62.7547 235.114L63.0078 236.34L72.6782 234.344L72.4252 233.118L62.7547 235.114Z" fill="white"/>
<path d="M63.8693 240.08L64.1653 241.297L73.7599 238.962L73.4639 237.746L63.8693 240.08Z" fill="white"/>
<path d="M65.1372 245.029L65.4758 246.234L74.9815 243.563L74.6428 242.358L65.1372 245.029Z" fill="white"/>
<path d="M66.5947 249.909L66.9749 251.102L76.3815 248.103L76.0013 246.911L66.5947 249.909Z" fill="white"/>
<path d="M70.0074 259.508L70.4705 260.671L79.6444 257.019L79.1814 255.856L70.0074 259.508Z" fill="white"/>
<path d="M71.9651 264.227L72.4685 265.373L81.5078 261.403L81.0044 260.257L71.9651 264.227Z" fill="white"/>
<path d="M74.1066 268.845L74.6501 269.973L83.5447 265.686L83.0011 264.558L74.1066 268.845Z" fill="white"/>
<path d="M76.3701 273.41L76.9524 274.519L85.6926 269.927L85.1104 268.818L76.3701 273.41Z" fill="white"/>
<path d="M78.7867 277.884L79.4067 278.972L87.9835 274.083L87.3635 272.995L78.7867 277.884Z" fill="white"/>
<path d="M81.4049 282.261L82.0623 283.326L90.4653 278.143L89.808 277.077L81.4049 282.261Z" fill="white"/>
<path d="M84.1519 286.555L84.8462 287.597L93.0616 282.122L92.3674 281.08L84.1519 286.555Z" fill="white"/>
<path d="M87.0409 290.773L87.771 291.79L95.7915 286.033L95.0614 285.016L87.0409 290.773Z" fill="white"/>
<path d="M90.0817 294.854L90.8472 295.845L98.6601 289.809L97.8947 288.818L90.0817 294.854Z" fill="white"/>
<path d="M96.5599 302.689L97.3918 303.623L104.766 297.057L103.934 296.123L96.5599 302.689Z" fill="white"/>
<path d="M100.013 306.471L100.877 307.376L108.019 300.56L107.155 299.655L100.013 306.471Z" fill="white"/>
<path d="M103.594 310.075L104.489 310.949L111.386 303.885L110.491 303.011L103.594 310.075Z" fill="white"/>
<path d="M107.298 313.6L108.223 314.442L114.872 307.146L113.948 306.304L107.298 313.6Z" fill="white"/>
<path d="M117.502 309.43L111.124 316.966L112.079 317.774L118.457 310.238L117.502 309.43Z" fill="white"/>
<path d="M115.065 320.217L116.047 320.993L122.168 313.248L121.186 312.472L115.065 320.217Z" fill="white"/>
<path d="M119.089 323.301L120.097 324.042L125.942 316.086L124.933 315.346L119.089 323.301Z" fill="white"/>
<path d="M123.269 326.244L124.302 326.949L129.87 318.797L128.837 318.091L123.269 326.244Z" fill="white"/>
<path d="M127.52 329.062L128.577 329.731L133.858 321.391L132.801 320.722L127.52 329.062Z" fill="white"/>
<path d="M136.288 334.211L137.388 334.805L142.074 326.116L140.974 325.523L136.288 334.211Z" fill="white"/>
<path d="M140.83 336.537L141.951 337.093L146.336 328.249L145.215 327.693L140.83 336.537Z" fill="white"/>
<path d="M145.436 338.73L146.576 339.246L150.645 330.253L149.506 329.737L145.436 338.73Z" fill="white"/>
<path d="M150.125 340.767L151.283 341.243L155.035 332.113L153.877 331.637L150.125 340.767Z" fill="white"/>
<path d="M154.864 342.636L156.038 343.07L159.465 333.812L158.291 333.377L154.864 342.636Z" fill="white"/>
<path d="M159.671 344.342L160.859 344.735L163.96 335.363L162.772 334.97L159.671 344.342Z" fill="white"/>
<path d="M164.523 345.856L165.725 346.208L168.496 336.733L167.295 336.382L164.523 345.856Z" fill="white"/>
<path d="M169.44 347.216L170.653 347.525L173.091 337.959L171.878 337.65L169.44 347.216Z" fill="white"/>
<path d="M174.377 348.394L175.601 348.66L177.701 339.013L176.478 338.747L174.377 348.394Z" fill="white"/>
<path d="M184.408 350.228L185.647 350.409L187.074 340.641L185.835 340.46L184.408 350.228Z" fill="white"/>
<path d="M189.456 350.882L190.7 351.019L191.78 341.205L190.535 341.068L189.456 350.882Z" fill="white"/>
<path d="M194.536 351.389L195.784 351.482L196.521 341.638L195.273 341.545L194.536 351.389Z" fill="white"/>
<path d="M199.632 351.7L200.883 351.749L201.27 341.884L200.019 341.835L199.632 351.7Z" fill="white"/>
<path d="M204.739 351.79L205.992 351.796L206.039 341.924L204.786 341.918L204.739 351.79Z" fill="white"/>
<path d="M209.819 351.729L211.07 351.691L210.773 341.823L209.522 341.861L209.819 351.729Z" fill="white"/>
<path d="M214.928 351.516L216.177 351.435L215.532 341.583L214.283 341.664L214.928 351.516Z" fill="white"/>
<path d="M220.002 351.115L221.247 350.99L220.259 341.167L219.015 341.292L220.002 351.115Z" fill="white"/>
<path d="M225.078 350.528L226.319 350.359L224.991 340.576L223.75 340.745L225.078 350.528Z" fill="white"/>
<path d="M235.093 348.819L236.318 348.564L234.31 338.897L233.085 339.152L235.093 348.819Z" fill="white"/>
<path d="M240.081 347.739L241.296 347.441L238.95 337.853L237.735 338.15L240.081 347.739Z" fill="white"/>
<path d="M244.999 346.435L246.203 346.095L243.52 336.594L242.316 336.934L244.999 346.435Z" fill="white"/>
<path d="M249.901 345.001L251.092 344.62L248.083 335.218L246.892 335.599L249.901 345.001Z" fill="white"/>
<path d="M254.74 343.377L255.916 342.954L252.577 333.664L251.401 334.087L254.74 343.377Z" fill="white"/>
<path d="M259.504 341.535L260.666 341.071L257.004 331.903L255.842 332.367L259.504 341.535Z" fill="white"/>
<path d="M264.228 339.61L265.371 339.105L261.385 330.073L260.242 330.578L264.228 339.61Z" fill="white"/>
<path d="M268.849 337.506L269.975 336.962L265.678 328.073L264.553 328.617L268.849 337.506Z" fill="white"/>
<path d="M273.377 335.217L274.483 334.634L269.878 325.9L268.772 326.484L273.377 335.217Z" fill="white"/>
<path d="M282.29 330.173L283.352 329.515L278.151 321.122L277.088 321.78L282.29 330.173Z" fill="white"/>
<path d="M286.534 327.445L287.574 326.75L282.088 318.542L281.048 319.237L286.534 327.445Z" fill="white"/>
<path d="M290.754 324.526L291.769 323.795L286 315.783L284.985 316.514L290.754 324.526Z" fill="white"/>
<path d="M294.86 321.48L295.849 320.714L289.802 312.91L288.814 313.677L294.86 321.48Z" fill="white"/>
<path d="M298.819 318.302L299.78 317.502L293.464 309.914L292.503 310.714L298.819 318.302Z" fill="white"/>
<path d="M302.701 315.008L303.633 314.176L297.057 306.813L296.125 307.645L302.701 315.008Z" fill="white"/>
<path d="M306.464 311.548L307.367 310.684L300.541 303.552L299.638 304.417L306.464 311.548Z" fill="white"/>
<path d="M310.077 307.985L310.949 307.089L303.874 300.202L303.002 301.098L310.077 307.985Z" fill="white"/>
<path d="M313.589 304.252L314.43 303.327L307.123 296.688L306.283 297.613L313.589 304.252Z" fill="white"/>
<path d="M320.199 296.526L320.974 295.545L313.224 289.431L312.45 290.413L320.199 296.526Z" fill="white"/>
<path d="M323.289 292.449L324.028 291.441L316.068 285.604L315.329 286.612L323.289 292.449Z" fill="white"/>
<path d="M326.243 288.305L326.947 287.272L318.789 281.712L318.085 282.745L326.243 288.305Z" fill="white"/>
<path d="M329.038 284.079L329.705 283.023L321.359 277.75L320.692 278.806L329.038 284.079Z" fill="white"/>
<path d="M331.685 279.71L332.315 278.63L323.787 273.655L323.157 274.735L331.685 279.71Z" fill="white"/>
<path d="M334.201 275.253L334.793 274.151L326.096 269.478L325.504 270.58L334.201 275.253Z" fill="white"/>
<path d="M336.574 270.731L337.128 269.61L328.275 265.24L327.722 266.361L336.574 270.731Z" fill="white"/>
<path d="M338.732 266.123L339.246 264.983L330.247 260.923L329.732 262.062L338.732 266.123Z" fill="white"/>
<path d="M331.635 257.726L332.11 256.569L341.247 260.306L340.771 261.461L331.635 257.726Z" fill="white"/>
<path d="M344.351 251.908L344.743 250.721L335.369 247.627L334.977 248.814L344.351 251.908Z" fill="white"/>
<path d="M345.865 247.056L346.214 245.854L336.736 243.094L336.386 244.295L345.865 247.056Z" fill="white"/>
<path d="M347.207 242.154L347.514 240.941L337.945 238.517L337.637 239.73L347.207 242.154Z" fill="white"/>
<path d="M348.375 237.179L348.639 235.957L338.987 233.871L338.723 235.093L348.375 237.179Z" fill="white"/>
<path d="M349.414 232.165L349.636 230.935L339.921 229.177L339.699 230.407L349.414 232.165Z" fill="white"/>
<path d="M350.213 227.145L350.392 225.906L340.618 224.5L340.44 225.738L350.213 227.145Z" fill="white"/>
<path d="M350.895 222.109L351.031 220.866L341.216 219.795L341.08 221.038L350.895 222.109Z" fill="white"/>
<path d="M351.385 217.049L351.477 215.802L341.63 215.08L341.539 216.328L351.385 217.049Z" fill="white"/>
<path d="M351.659 211.933L351.707 210.682L341.841 210.301L341.793 211.552L351.659 211.933Z" fill="white"/>
<path d="M351.764 201.754L351.725 200.503L341.856 200.811L341.895 202.062L351.764 201.754Z" fill="white"/>
<path d="M351.515 196.644L351.433 195.395L341.581 196.045L341.664 197.294L351.515 196.644Z" fill="white"/>
<path d="M351.115 191.581L350.989 190.336L341.167 191.329L341.293 192.573L351.115 191.581Z" fill="white"/>
<path d="M350.517 186.496L350.349 185.256L340.567 186.584L340.735 187.824L350.517 186.496Z" fill="white"/>
<path d="M349.752 181.461L349.541 180.228L339.81 181.896L340.022 183.129L349.752 181.461Z" fill="white"/>
<path d="M348.827 176.48L348.572 175.254L338.905 177.261L339.16 178.487L348.827 176.48Z" fill="white"/>
<path d="M347.708 171.485L347.41 170.269L337.821 172.613L338.118 173.829L347.708 171.485Z" fill="white"/>
<path d="M346.449 166.57L346.109 165.364L336.606 168.04L336.946 169.246L346.449 166.57Z" fill="white"/>
<path d="M335.579 164.68L335.197 163.487L344.598 160.474L344.976 161.669L335.579 164.68Z" fill="white"/>
<path d="M341.561 152.053L341.098 150.89L331.928 154.547L332.392 155.709L341.561 152.053Z" fill="white"/>
<path d="M330.569 151.34L330.067 150.193L339.101 146.212L339.603 147.361L330.569 151.34Z" fill="white"/>
<path d="M337.488 142.714L336.944 141.586L328.053 145.873L328.596 147.001L337.488 142.714Z" fill="white"/>
<path d="M326.467 142.769L325.886 141.658L334.619 137.059L335.202 138.168L326.467 142.769Z" fill="white"/>
<path d="M324.193 138.595L323.574 137.505L332.143 132.603L332.763 133.693L324.193 138.595Z" fill="white"/>
<path d="M321.777 134.503L321.12 133.437L329.511 128.238L330.169 129.307L321.777 134.503Z" fill="white"/>
<path d="M319.218 130.498L318.525 129.455L326.73 123.967L327.424 125.013L319.218 130.498Z" fill="white"/>
<path d="M316.521 126.586L315.792 125.566L323.801 119.797L324.531 120.817L316.521 126.586Z" fill="white"/>
<path d="M313.689 122.772L312.925 121.776L320.726 115.732L321.492 116.725L313.689 122.772Z" fill="white"/>
<path d="M307.635 115.445L306.804 114.508L314.165 107.932L314.998 108.87L307.635 115.445Z" fill="white"/>
<path d="M304.421 111.947L303.556 111.039L310.685 104.209L311.55 105.118L304.421 111.947Z" fill="white"/>
<path d="M301.085 108.561L300.19 107.684L307.076 100.61L307.971 101.488L301.085 108.561Z" fill="white"/>
<path d="M297.634 105.295L296.71 104.448L303.343 97.138L304.268 97.9855L297.634 105.295Z" fill="white"/>
<path d="M294.07 102.15L293.117 101.337L299.492 93.7995L300.447 94.6127L294.07 102.15Z" fill="white"/>
<path d="M290.4 99.1311L289.419 98.3521L295.527 90.5977L296.509 91.3774L290.4 99.1311Z" fill="white"/>
<path d="M286.626 96.2437L285.619 95.4988L291.452 87.5353L292.462 88.28L286.626 96.2437Z" fill="white"/>
<path d="M282.753 93.4889L281.721 92.7816L287.273 84.6172L288.308 85.3265L282.753 93.4889Z" fill="white"/>
<path d="M278.786 90.8714L277.73 90.2001L282.994 81.849L284.053 82.5201L278.786 90.8714Z" fill="white"/>
<path d="M270.594 86.0579L269.493 85.462L274.16 76.7646L275.264 77.3604L270.594 86.0579Z" fill="#FFA900"/>
<path d="M266.375 83.8705L265.254 83.3138L269.616 74.4574L270.739 75.0139L266.375 83.8705Z" fill="#FFA900"/>
<path d="M262.084 81.8305L260.943 81.3131L264.994 72.308L266.135 72.8268L262.084 81.8305Z" fill="#FFA900"/>
<path d="M257.723 79.9409L256.565 79.4625L260.3 70.3234L261.458 70.8017L257.723 79.9409Z" fill="#FFA900"/>
<path d="M253.3 78.2058L252.126 77.7678L255.539 68.5043L256.713 68.9416L253.3 78.2058Z" fill="#FFA900"/>
<path d="M248.819 76.6236L247.63 76.2288L250.717 66.8519L251.906 67.2468L248.819 76.6236Z" fill="#FFA900"/>
<path d="M244.284 75.2014L243.083 74.8473L245.84 65.3681L247.042 65.7228L244.284 75.2014Z" fill="#FFA900"/>
<path d="M239.704 73.9377L238.491 73.625L240.916 64.0557L242.129 64.3683L239.704 73.9377Z" fill="#FFA900"/>
<path d="M235.08 72.8346L233.857 72.5646L235.947 62.916L237.172 63.1851L235.08 72.8346Z" fill="#FFA900"/>
<path d="M225.734 71.1152L224.496 70.9317L225.908 61.16L227.148 61.3441L225.734 71.1152Z" fill="#FFA900"/>
<path d="M221.023 70.4998L219.777 70.3615L220.849 60.5444L222.093 60.687L221.023 70.4998Z" fill="#FFA900"/>
<path d="M216.29 70.0508L215.043 69.9545L215.77 60.1072L217.019 60.2047L216.29 70.0508Z" fill="#FFA900"/>
<path d="M211.547 69.7672L210.297 69.7152L210.68 59.8482L211.932 59.9022L211.547 69.7672Z" fill="#FFA900"/>
<path d="M206.796 69.6492L205.545 69.6406L205.583 59.7668L206.838 59.7766L206.796 69.6492Z" fill="#FFA900"/>
<path d="M202.046 69.696L200.794 69.732L200.488 59.8622L201.741 59.828L202.046 69.696Z" fill="#FFA900"/>
<path d="M197.297 69.9105L196.049 69.9896L195.397 60.137L196.65 60.0583L197.297 69.9105Z" fill="#FFA900"/>
<path d="M192.561 70.2883L191.315 70.4119L190.321 60.5864L191.568 60.4656L192.561 70.2883Z" fill="#FFA900"/>
<path d="M187.84 70.8333L186.598 71.0005L185.263 61.2163L186.506 61.0511L187.84 70.8333Z" fill="#FFA900"/>
<path d="M178.47 72.414L177.243 72.6672L175.227 62.9992L176.457 62.7478L178.47 72.414Z" fill="#FFA900"/>
<path d="M173.831 73.4496L172.614 73.7453L170.263 64.1534L171.482 63.8596L173.831 73.4496Z" fill="#FFA900"/>
<path d="M169.232 74.6455L168.026 74.9829L165.341 65.4798L166.55 65.1429L169.232 74.6455Z" fill="#FFA900"/>
<path d="M164.677 76.0011L163.483 76.3807L160.469 66.9768L161.664 66.5984L164.677 76.0011Z" fill="#FFA900"/>
<path d="M160.172 77.5142L158.993 77.9352L155.652 68.6422L156.834 68.2216L160.172 77.5142Z" fill="#FFA900"/>
<path d="M155.724 79.1843L154.56 79.6466L150.896 70.4762L152.063 70.0137L155.724 79.1843Z" fill="#FFA900"/>
<path d="M151.335 81.009L150.189 81.511L146.207 72.475L147.357 71.972L151.335 81.009Z" fill="#FFA900"/>
<path d="M147.014 82.9845L145.886 83.5269L141.59 74.6333L142.722 74.0921L147.014 82.9845Z" fill="#FFA900"/>
<path d="M142.764 85.1106L141.655 85.6925L137.052 76.9551L138.165 76.3736L142.764 85.1106Z" fill="#FFA900"/>
<path d="M134.499 89.8016L133.434 90.4593L128.233 82.0632L129.302 81.4066L134.499 89.8016Z" fill="white"/>
<path d="M130.494 92.36L129.453 93.0548L123.962 84.8454L125.008 84.1509L130.494 92.36Z" fill="white"/>
<path d="M126.581 95.0561L125.565 95.7864L119.791 87.7752L120.812 87.0438L126.581 95.0561Z" fill="white"/>
<path d="M122.765 97.8882L121.775 98.6532L115.724 90.8473L116.719 90.0819L122.765 97.8882Z" fill="white"/>
<path d="M119.05 100.851L118.087 101.65L111.767 94.0602L112.735 93.2601L119.05 100.851Z" fill="white"/>
<path d="M115.441 103.943L114.506 104.775L107.926 97.4095L108.865 96.5771L115.441 103.943Z" fill="white"/>
<path d="M111.941 107.158L111.035 108.021L104.202 100.891L105.112 100.026L111.941 107.158Z" fill="white"/>
<path d="M108.556 110.492L107.682 111.387L100.603 104.499L101.482 103.603L108.556 110.492Z" fill="white"/>
<path d="M105.29 113.943L104.447 114.867L97.1325 108.232L97.98 107.306L105.29 113.943Z" fill="white"/>
<path d="M205.606 42.2783L211.668 52.7783H199.544L205.606 42.2783Z" fill="#FFA900"/>
<path d="M166.753 95.8636L158.54 98.8526L158.362 98.3666L159.78 97.8506L157.94 92.7936L158.44 92.6116L160.28 97.6686L162.395 96.8986L159.916 90.0856L156.069 91.4846L155.897 91.0066L163.66 88.1816L163.844 88.6556L160.42 89.9016L161.494 92.8516L164.596 91.7226L164.778 92.2226L161.676 93.3516L162.901 96.7146L166.577 95.3766L166.753 95.8636Z" fill="white"/>
<path d="M173.457 85.1565L170.48 86.2405L171.091 87.9245L173.431 87.0725L175.562 92.9235L175.07 93.1025L174.802 92.3635L168.892 94.5145L169.16 95.2535L168.683 95.4265L166.554 89.5765L168.665 88.8075L168.052 87.1235L165.29 88.1285L165.118 87.6605L173.286 84.6875L173.457 85.1565ZM174.63 91.8895L173.114 87.7285L171.264 88.4015L172 90.4205C172.059 90.5855 172.154 90.6445 172.287 90.5965L173.543 90.1385L173.715 90.6065L172.389 91.0885C172.207 91.1545 172.037 91.1465 171.875 91.0645C171.715 90.9825 171.6 90.8505 171.533 90.6675L170.773 88.5795L169.3 89.1155C169.863 90.6355 169.841 91.8915 169.234 92.8865L168.707 92.6945C169.004 92.2265 169.168 91.7485 169.203 91.2615C169.236 90.7745 169.111 90.1165 168.828 89.2885L167.203 89.8795L168.719 94.0415L174.63 91.8895ZM170.601 88.1035L169.988 86.4195L168.533 86.9485L169.146 88.6325L170.601 88.1035Z" fill="white"/>
<path d="M245.273 314.846L253.486 311.857L253.662 312.343L252.244 312.86L254.086 317.917L253.586 318.099L251.744 313.042L249.629 313.812L252.109 320.626L255.956 319.227L256.128 319.704L248.365 322.53L248.181 322.056L251.605 320.809L250.531 317.858L247.429 318.987L247.247 318.487L250.349 317.358L249.124 313.995L245.448 315.333L245.273 314.846Z" fill="white"/>
<path d="M236.105 318.812L236.222 318.265C238.001 318.314 239.484 318.69 240.671 319.395L239.677 316.66L240.154 316.487L241.146 319.212C241.832 317.643 242.744 316.376 243.884 315.415L244.306 315.76C243.103 316.818 242.234 317.993 241.693 319.288L244.24 318.361L245.388 321.518L242.382 322.612L242.663 323.383L246.401 322.022L246.575 322.499L242.837 323.86L243.14 324.69L242.661 324.864L242.36 324.034L238.606 325.4L238.432 324.922L242.186 323.556L241.905 322.785L238.932 323.867L237.782 320.711L240.329 319.783C239.216 319.143 237.808 318.819 236.105 318.812ZM241.894 321.268L242.216 322.153L244.716 321.243L244.394 320.358L241.894 321.268ZM241.402 319.914L241.724 320.8L244.224 319.89L243.902 319.004L241.402 319.914ZM238.935 322.344L239.257 323.23L241.739 322.327L241.417 321.441L238.935 322.344ZM238.441 320.991L238.763 321.877L241.245 320.974L240.923 320.088L238.441 320.991Z" fill="white"/>
<path d="M96.392 244.616L99.381 252.829L98.895 253.006L98.379 251.588L93.322 253.429L93.14 252.929L98.197 251.088L97.426 248.973L90.613 251.453L92.012 255.298L91.535 255.472L88.709 247.708L89.183 247.525L90.429 250.948L93.379 249.875L92.25 246.772L92.75 246.59L93.879 249.692L97.242 248.468L95.904 244.792L96.392 244.616Z" fill="white"/>
<path d="M86.4201 237.676L87.8161 241.512L88.9121 241.113L87.6851 237.74L92.7131 235.91C92.8941 235.845 93.0701 235.846 93.2441 235.912C93.4171 235.979 93.5821 236.228 93.7391 236.659C93.8131 236.864 93.8801 237.076 93.9381 237.293L93.5201 237.658C93.4431 237.379 93.3701 237.143 93.3001 236.954C93.1971 236.673 93.1091 236.506 93.0321 236.454C92.9551 236.402 92.8691 236.394 92.7711 236.43L88.3301 238.046L90.5841 244.24L95.7971 242.344L95.9671 242.812L90.2811 244.881L89.0911 241.61L87.9951 242.008L89.3781 245.808L88.9011 245.97L87.5221 242.18L86.6041 242.514L86.4231 242.019L87.3411 241.685L85.9451 237.849L86.4201 237.676ZM91.8581 237.381L92.7101 239.721L94.3061 239.14L94.4871 239.636L92.8901 240.217L93.7521 242.584L93.2701 242.76L92.4091 240.393L91.4411 240.745L92.1591 242.719L91.6731 242.896L91.2871 241.836C90.9831 242.096 90.7061 242.396 90.4561 242.735L90.0601 242.365C90.3981 241.94 90.7421 241.585 91.0911 241.299L90.6501 240.088C90.1641 239.981 89.6921 239.929 89.2331 239.934L89.2011 239.389C89.6411 239.399 90.0551 239.441 90.4421 239.514L90.0411 238.413L90.5271 238.235L91.2601 240.25L92.2281 239.897L91.3761 237.557L91.8581 237.381Z" fill="white"/>
<path d="M315.381 166.055L312.391 157.842L312.877 157.664L313.395 159.082L318.452 157.242L318.634 157.742L313.577 159.582L314.347 161.697L321.161 159.218L319.763 155.372L320.24 155.198L323.066 162.962L322.591 163.146L321.345 159.722L318.396 160.796L319.525 163.898L319.023 164.081L317.894 160.978L314.531 162.203L315.869 165.878L315.381 166.055Z" fill="white"/>
<path d="M318.37 171.048C317.161 169.575 316.245 168.362 315.62 167.408L316.052 167.079C316.527 167.804 317.091 168.592 317.743 169.442L321.331 168.135L320.425 165.649L320.925 165.466L321.831 167.953L324.735 166.895L324.921 167.405L318.116 169.882C318.321 170.16 318.585 170.484 318.905 170.852L318.37 171.048ZM321.04 174.503C320.661 174.634 320.265 174.745 319.851 174.835C319.437 174.925 319.173 174.964 319.058 174.954C318.945 174.943 318.829 174.907 318.716 174.843C318.603 174.779 318.507 174.687 318.429 174.568C318.351 174.449 318.24 174.192 318.097 173.797C317.827 173.057 317.695 172.603 317.697 172.436C317.701 172.269 317.752 172.133 317.851 172.03C317.95 171.927 318.087 171.842 318.261 171.779L325.546 169.128L325.732 169.632L322.808 170.695L323.785 173.375L323.283 173.558L322.308 170.878L318.417 172.294C318.343 172.32 318.294 172.388 318.267 172.494C318.24 172.601 318.333 172.947 318.544 173.531C318.694 173.944 318.802 174.185 318.862 174.255C318.925 174.324 319.003 174.37 319.1 174.392C319.196 174.414 319.422 174.385 319.782 174.305C320.141 174.224 320.553 174.108 321.022 173.954L321.04 174.503Z" fill="white"/>
<path d="M221.772 87.6048L222.476 87.6665C223.278 87.7367 223.74 88.1889 223.682 88.8504C223.631 89.438 223.061 89.8116 222.317 89.7465C221.563 89.6805 221.119 89.2416 221.107 88.6603L220.434 88.6013C220.403 89.5358 221.097 90.2514 222.272 90.3543C223.373 90.4507 224.312 89.8544 224.396 88.8894C224.465 88.0994 223.967 87.5264 223.123 87.4016L223.124 87.386C223.835 87.3228 224.331 86.8564 224.393 86.1521C224.467 85.3076 223.761 84.638 222.757 84.5502C221.702 84.4578 220.94 85.0068 220.779 85.9534L221.452 86.0123C221.566 85.4302 222.026 85.0979 222.672 85.1545C223.385 85.2168 223.729 85.6273 223.68 86.1838C223.631 86.7519 223.143 87.1288 222.497 87.0723L221.823 87.0133L221.772 87.6048ZM227.074 90.7746C228.382 90.8891 229.236 89.8227 229.391 88.0483C229.545 86.2855 228.886 85.0866 227.582 84.9725C226.278 84.8584 225.412 85.9315 225.258 87.6904C225.103 89.4649 225.763 90.6598 227.074 90.7746ZM227.128 90.1637C226.248 90.0867 225.84 89.1491 225.963 87.7482C226.083 86.3784 226.66 85.5114 227.528 85.5874C228.396 85.6633 228.807 86.6091 228.686 87.9905C228.564 89.3914 228.003 90.2403 227.128 90.1637ZM231.907 91.1977C233.215 91.3121 234.069 90.2458 234.224 88.4713C234.378 86.7085 233.719 85.5097 232.415 85.3956C231.112 85.2815 230.245 86.3546 230.091 88.1135C229.936 89.888 230.596 91.0829 231.907 91.1977ZM231.961 90.5867C231.081 90.5097 230.673 89.5721 230.796 88.1712C230.916 86.8015 231.494 85.9345 232.361 86.0104C233.229 86.0864 233.64 87.0321 233.519 88.4136C233.397 89.8145 232.836 90.6634 231.961 90.5867Z" fill="white"/>
<path d="M277.956 111.597L278.535 112.003C279.195 112.464 279.369 113.087 278.988 113.631C278.65 114.114 277.969 114.153 277.358 113.725C276.737 113.29 276.572 112.688 276.853 112.179L276.299 111.791C275.805 112.585 276.049 113.552 277.015 114.229C277.921 114.863 279.031 114.816 279.587 114.022C280.042 113.372 279.896 112.627 279.228 112.097L279.237 112.084C279.885 112.385 280.547 112.229 280.953 111.649C281.439 110.955 281.162 110.022 280.337 109.444C279.469 108.837 278.535 108.931 277.922 109.671L278.476 110.058C278.865 109.611 279.43 109.553 279.961 109.925C280.547 110.335 280.64 110.863 280.32 111.321C279.993 111.788 279.382 111.87 278.85 111.498L278.297 111.111L277.956 111.597ZM281.835 114.313L282.414 114.718C283.073 115.18 283.247 115.803 282.866 116.347C282.528 116.83 281.848 116.869 281.237 116.441C280.616 116.006 280.451 115.404 280.731 114.895L280.177 114.507C279.684 115.301 279.927 116.268 280.893 116.944C281.799 117.578 282.91 117.531 283.465 116.738C283.92 116.088 283.775 115.342 283.106 114.812L283.115 114.799C283.763 115.1 284.425 114.944 284.831 114.365C285.317 113.671 285.041 112.738 284.215 112.16C283.348 111.552 282.414 111.647 281.801 112.386L282.354 112.774C282.744 112.327 283.309 112.269 283.84 112.641C284.425 113.051 284.518 113.579 284.198 114.036C283.871 114.504 283.26 114.586 282.729 114.214L282.175 113.826L281.835 114.313ZM284.842 119.709C285.917 120.462 287.19 119.966 288.212 118.506C289.227 117.057 289.255 115.689 288.183 114.938C287.111 114.187 285.824 114.684 284.811 116.13C283.79 117.589 283.764 118.954 284.842 119.709ZM285.194 119.207C284.471 118.7 284.586 117.684 285.393 116.532C286.181 115.406 287.115 114.944 287.829 115.444C288.543 115.943 288.426 116.968 287.63 118.104C286.824 119.256 285.914 119.711 285.194 119.207Z" fill="white"/>
<path d="M323.144 223.692L323.083 224.396C323.012 225.198 322.56 225.66 321.899 225.603C321.311 225.551 320.937 224.981 321.002 224.238C321.069 223.483 321.507 223.039 322.089 223.027L322.148 222.354C321.213 222.323 320.498 223.017 320.395 224.193C320.298 225.294 320.895 226.232 321.86 226.317C322.65 226.386 323.223 225.887 323.347 225.043L323.363 225.044C323.426 225.756 323.893 226.252 324.597 226.313C325.441 226.387 326.111 225.681 326.199 224.677C326.291 223.622 325.742 222.861 324.796 222.7L324.737 223.373C325.319 223.486 325.651 223.947 325.595 224.593C325.532 225.305 325.122 225.649 324.565 225.601C323.997 225.551 323.62 225.063 323.677 224.417L323.736 223.744L323.144 223.692ZM319.974 228.995C319.86 230.302 320.926 231.156 322.701 231.311C324.464 231.466 325.662 230.806 325.776 229.502C325.891 228.199 324.818 227.332 323.059 227.178C321.284 227.023 320.089 227.683 319.974 228.995ZM320.585 229.048C320.662 228.169 321.6 227.76 323.001 227.883C324.371 228.003 325.238 228.581 325.162 229.449C325.086 230.316 324.14 230.728 322.759 230.607C321.358 230.484 320.509 229.924 320.585 229.048Z" fill="white"/>
<path d="M295.232 278.364C294.568 279.311 294.752 280.465 295.664 281.104C296.541 281.718 297.648 281.52 298.264 280.64C298.665 280.067 298.724 279.35 298.418 278.826L298.425 278.816C299.64 279.696 300.018 280.614 299.478 281.385C299.158 281.842 298.629 282.025 298.122 281.857L297.712 282.442C298.542 282.804 299.433 282.532 299.982 281.748C300.773 280.618 300.325 279.317 298.77 278.228C298.271 277.878 297.803 277.661 297.34 277.566C296.475 277.384 295.715 277.673 295.232 278.364ZM295.748 278.716C296.163 278.124 296.956 277.993 297.548 278.407C298.136 278.819 298.256 279.575 297.828 280.186C297.4 280.798 296.66 280.928 296.055 280.505C295.473 280.097 295.336 279.305 295.748 278.716ZM292.526 282.235C291.773 283.31 292.269 284.583 293.729 285.605C295.178 286.62 296.546 286.648 297.297 285.576C298.048 284.504 297.551 283.217 296.105 282.204C294.646 281.182 293.281 281.156 292.526 282.235ZM293.028 282.587C293.535 281.863 294.551 281.979 295.703 282.785C296.829 283.574 297.291 284.508 296.791 285.222C296.292 285.935 295.267 285.819 294.131 285.023C292.979 284.217 292.524 283.307 293.028 282.587Z" fill="white"/>
<path d="M188.719 319.421L188.042 319.362L187.551 324.977L188.235 325.037L189.824 324.094L189.888 323.354L188.308 324.294L188.293 324.293L188.719 319.421ZM186.303 323.236L186.303 323.233L185.626 323.173L185.626 323.177C185.571 323.804 185.031 324.235 184.374 324.177C183.755 324.123 183.299 323.648 183.346 323.107C183.387 322.64 183.592 322.356 184.417 321.628L186.576 319.719L186.618 319.237L182.913 318.913L182.859 319.535L185.594 319.775L185.593 319.79L184.044 321.133C183.022 322.02 182.697 322.462 182.642 323.089C182.567 323.949 183.297 324.699 184.301 324.787C185.359 324.879 186.217 324.217 186.303 323.236ZM180.147 318.576C178.839 318.462 177.985 319.528 177.83 321.303C177.676 323.066 178.335 324.264 179.639 324.378C180.943 324.493 181.809 323.42 181.963 321.661C182.118 319.886 181.458 318.691 180.147 318.576ZM180.093 319.187C180.973 319.264 181.381 320.202 181.258 321.603C181.138 322.973 180.561 323.84 179.693 323.764C178.825 323.688 178.414 322.742 178.535 321.36C178.657 319.96 179.218 319.111 180.093 319.187Z" fill="white"/>
<path d="M133.947 296.405L133.426 295.968L129.803 300.286L130.33 300.728L132.172 300.866L132.649 300.298L130.815 300.161L130.803 300.151L133.947 296.405ZM130.907 293.732C130.007 292.976 128.86 293.049 128.132 293.917C127.428 294.754 127.517 295.864 128.346 296.559C128.759 296.906 129.249 297.052 129.662 296.955L129.673 296.965L128.362 298.261L126.333 296.558L125.931 297.037L128.403 299.111L130.668 296.892L130.162 296.467C129.732 296.621 129.235 296.515 128.831 296.176C128.256 295.694 128.196 294.934 128.683 294.354C129.17 293.773 129.918 293.708 130.505 294.2C131.022 294.634 131.148 295.28 130.809 295.781L131.339 296.226C131.912 295.452 131.733 294.425 130.907 293.732ZM127.296 290.701C126.29 289.858 124.979 290.241 123.834 291.606C122.697 292.961 122.55 294.322 123.552 295.163C124.554 296.004 125.88 295.622 127.015 294.269C128.16 292.905 128.304 291.548 127.296 290.701ZM126.902 291.171C127.578 291.739 127.374 292.741 126.47 293.818C125.587 294.871 124.616 295.25 123.949 294.69C123.281 294.13 123.487 293.119 124.378 292.057C125.282 290.98 126.228 290.606 126.902 291.171Z" fill="white"/>
<path d="M109.825 131.789L109.828 131.792L110.309 131.312L110.306 131.309C109.861 130.864 109.878 130.174 110.345 129.707C110.784 129.268 111.441 129.223 111.825 129.607C112.157 129.939 112.242 130.279 112.27 131.378L112.344 134.259L112.687 134.601L115.317 131.972L114.875 131.53L112.933 133.472L112.922 133.46L112.889 131.411C112.867 130.058 112.737 129.524 112.292 129.08C111.682 128.469 110.638 128.547 109.925 129.259C109.174 130.011 109.129 131.093 109.825 131.789ZM117.648 129.64L118.128 129.16L117.3 128.331L117.863 127.768L117.427 127.331L116.863 127.895L114.143 125.174L113.408 125.909C113.817 128.201 114.076 129.395 114.366 130.364L114.817 130.814L116.819 128.812L117.648 129.64ZM114.861 129.875C114.623 129.008 114.391 127.909 114.068 126.077L114.076 126.069L116.383 128.375L114.872 129.886L114.861 129.875ZM120.639 126.782C121.567 125.854 121.299 124.514 120.04 123.254C118.788 122.003 117.446 121.738 116.521 122.663C115.595 123.589 115.861 124.942 117.109 126.191C118.369 127.45 119.708 127.713 120.639 126.782ZM120.205 126.348C119.581 126.972 118.601 126.682 117.606 125.688C116.634 124.716 116.341 123.716 116.957 123.1C117.573 122.484 118.562 122.777 119.543 123.757C120.537 124.752 120.827 125.727 120.205 126.348Z" fill="white"/>
</svg>
